<?xml version="1.0" encoding="UTF-8"?>
<svg width="260px" height="294px" viewBox="0 0 260 294" version="1.1" xmlns="http://www.w3.org/2000/svg" xmlns:xlink="http://www.w3.org/1999/xlink">
    <!-- Generator: Sketch 55.2 (78181) - https://sketchapp.com -->
    <title>Artboard Copy 2</title>
    <desc>Created with Sketch.</desc>
    <g id="Artboard-Copy-2" stroke="none" stroke-width="1" fill="none" fill-rule="evenodd">
        <g id="logo-stroke" transform="translate(97.000000, 31.000000)"></g>
        <g id="sw" transform="translate(36.000000, 42.000000)">
            <g id="logo/primary" transform="translate(10.000000, 0.500000)">
                <g>
                    <polygon id="bg" stroke="#FFFFFF" stroke-width="25" points="0.893617021 47.520842 84.4458502 0 168 47.520842 168 175.106599 0.893617021 175.106599"></polygon>
                    <path d="M63.8005617,106.807211 L83.980817,95.3811008 L-0.000119148936,47.8280095 L-0.000119148936,94.7886444 C6.29332766,91.4617744 14.2226894,89.729979 23.3018383,89.729979 C43.0698383,89.729979 55.5804766,97.9636026 63.8005617,106.807211" id="Fill-1" fill="#1CC29F"></path>
                    <path d="M26.747983,172.353446 C35.1598979,172.353446 41.5021957,169.920519 41.5021957,163.699143 C41.5021957,157.343384 33.3667064,154.909288 23.3010043,152.475193 C15.8077277,150.592654 7.20755745,148.704273 0.000238297872,145.142523 L0.000238297872,157.207832 C6.06730213,166.809831 16.1330043,172.353446 26.747983,172.353446" id="Fill-4" fill="#1CC29F"></path>
                    <polygon id="Fill-6" fill="#52595F" points="167.961634 142.93314 167.961634 47.8281263 83.9806979 95.3812176"></polygon>
                    <polygon id="Fill-9" fill="#ACE4D6" points="167.960443 47.82836 83.9806979 0.27526873 -0.000238297872 47.82836 83.9806979 95.3802828"></polygon>
                    <path d="M83.9802213,95.3795816 L63.799966,106.80686 L42.1684766,119.0568 C36.6411574,114.746009 29.6113702,111.636489 23.1642213,111.636489 C15.303966,111.636489 11.3053277,114.2038 11.3053277,118.938776 C11.3053277,124.415784 16.7754553,127.026331 24.3545191,129.14258 C25.9451574,129.58663 27.6227745,130.010815 29.3683064,130.432663 C46.0527319,134.354326 68.389583,139.35807 68.389583,161.804802 C68.389583,166.517576 67.3780085,171.21399 65.1618383,175.499073 L167.959966,175.499073 L167.959966,142.932673 L83.9802213,95.3795816 Z" id="Fill-12" fill="#373B3F"></path>
                    <path d="M29.3683064,130.43278 C27.6227745,130.010932 25.9451574,129.586747 24.3545191,129.142697 C16.7754553,127.026448 11.3053277,124.415901 11.3053277,118.938893 C11.3053277,114.203917 15.303966,111.636606 23.1642213,111.636606 C29.6113702,111.636606 36.6411574,114.746126 42.1684766,119.056917 L63.799966,106.806977 C55.5786894,97.9633689 43.0692426,89.7285767 23.3012426,89.7285767 C14.2209021,89.7285767 6.2939234,91.4603721 0.000476595745,94.7884107 L0.000476595745,142.93279 L0.000476595745,145.142523 C7.20660426,148.704273 15.807966,150.591485 23.3012426,152.474024 C33.3657532,154.909288 41.502434,157.342215 41.502434,163.699143 C41.502434,169.920519 35.1589447,172.353446 26.7482213,172.353446 C16.1320511,172.353446 6.06634894,166.809831 0.000476595745,157.207832 L0.000476595745,175.49919 L65.1618383,175.49919 C67.3780085,171.214107 68.389583,166.517693 68.389583,161.804919 C68.389583,139.358186 46.0527319,134.353274 29.3683064,130.43278" id="Fill-14" fill="#FFFFFF"></path>
                </g>
            </g>
            <g id="assets/wordmark/primary" transform="translate(0.000000, 212.000000)" fill="#FFFFFF">
                <g id="Group-16">
                    <path d="M4.9807,31.0602 C2.9147,30.4602 1.2537,29.6802 0.0007,28.7202 L2.2017,23.8402 C3.4007,24.7202 4.8267,25.4272 6.4807,25.9602 C8.1327,26.4942 9.7877,26.7602 11.4397,26.7602 C13.2817,26.7602 14.6407,26.4872 15.5197,25.9402 C16.4007,25.3942 16.8397,24.6662 16.8397,23.7602 C16.8397,23.0932 16.5807,22.5392 16.0607,22.1002 C15.5417,21.6602 14.8737,21.3072 14.0607,21.0392 C13.2467,20.7742 12.1467,20.4802 10.7597,20.1602 C8.6267,19.6542 6.8807,19.1472 5.5197,18.6402 C4.1607,18.1332 2.9947,17.3202 2.0197,16.2002 C1.0467,15.0802 0.5607,13.5862 0.5607,11.7202 C0.5607,10.0932 1.0007,8.6202 1.8807,7.3002 C2.7597,5.9802 4.0857,4.9342 5.8617,4.1602 C7.6327,3.3872 9.8007,2.9992 12.3617,2.9992 C14.1467,2.9992 15.8927,3.2132 17.5997,3.6402 C19.3067,4.0672 20.8007,4.6802 22.0807,5.4802 L20.0807,10.4002 C17.4947,8.9342 14.9067,8.2002 12.3207,8.2002 C10.5057,8.2002 9.1667,8.4942 8.3007,9.0802 C7.4337,9.6662 7.0007,10.4402 7.0007,11.4002 C7.0007,12.3602 7.5007,13.0742 8.5007,13.5392 C9.5007,14.0072 11.0277,14.4672 13.0807,14.9202 C15.2127,15.4272 16.9607,15.9342 18.3207,16.4402 C19.6797,16.9472 20.8457,17.7472 21.8207,18.8402 C22.7927,19.9342 23.2817,21.4142 23.2817,23.2802 C23.2817,24.8802 22.8347,26.3402 21.9397,27.6602 C21.0467,28.9802 19.7077,30.0272 17.9197,30.8002 C16.1327,31.5732 13.9607,31.9602 11.4007,31.9602 C9.1877,31.9602 7.0467,31.6602 4.9807,31.0602 Z M42.301,25.0602 C43.328,23.9802 43.842,22.5342 43.842,20.7202 C43.842,18.9072 43.328,17.4602 42.301,16.3802 C41.276,15.3002 39.961,14.7602 38.362,14.7602 C36.762,14.7602 35.447,15.3002 34.422,16.3802 C33.395,17.4602 32.881,18.9072 32.881,20.7202 C32.881,22.5342 33.395,23.9802 34.422,25.0602 C35.447,26.1402 36.762,26.6802 38.362,26.6802 C39.961,26.6802 41.276,26.1402 42.301,25.0602 Z M44.901,11.0202 C46.541,11.9402 47.828,13.2342 48.762,14.9002 C49.696,16.5672 50.162,18.5072 50.162,20.7202 C50.162,22.9342 49.696,24.8732 48.762,26.5392 C47.828,28.2062 46.541,29.4992 44.901,30.4202 C43.262,31.3402 41.442,31.8002 39.442,31.8002 C36.696,31.8002 34.535,30.9342 32.961,29.2002 L32.961,39.2402 L26.721,39.2402 L26.721,9.9602 L32.682,9.9602 L32.682,12.4402 C34.229,10.5742 36.481,9.6402 39.442,9.6402 C41.442,9.6402 43.262,10.1002 44.901,11.0202 Z M54.32,31.4806 L54.32,1.8006 L60.56,1.8006 L60.56,31.4806 L54.32,31.4806 Z M66.36,31.4806 L66.36,9.9606 L72.6,9.9606 L72.6,31.4806 L66.36,31.4806 Z M66.68,5.9606 C65.961,5.2936 65.6,4.4676 65.6,3.4796 C65.6,2.4936 65.961,1.6666 66.68,0.9996 C67.401,0.3336 68.334,-0.0004 69.481,-0.0004 C70.627,-0.0004 71.561,0.3196 72.279,0.9606 C73,1.6006 73.36,2.3996 73.36,3.3596 C73.36,4.3996 73,5.2606 72.279,5.9396 C71.561,6.6196 70.627,6.9606 69.481,6.9606 C68.334,6.9606 67.401,6.6266 66.68,5.9606 Z M92.2795,30.44 C91.6665,30.894 90.9145,31.234 90.0195,31.461 C89.1275,31.686 88.1855,31.8 87.1995,31.8 C84.6405,31.8 82.6605,31.147 81.2595,29.84 C79.8595,28.534 79.1605,26.614 79.1605,24.08 L79.1605,14.76 L75.8405,14.76 L75.8405,9.961 L79.1605,9.961 L79.1605,5.2 L85.4005,5.2 L85.4005,9.961 L90.7595,9.961 L90.7595,14.76 L85.4005,14.76 L85.4005,24 C85.4005,24.907 85.6335,25.607 86.0995,26.1 C86.5665,26.593 87.2265,26.84 88.0805,26.84 C89.0665,26.84 89.9065,26.574 90.5995,26.04 L92.2795,30.44 Z M130.5978,9.9606 L122.7968,31.4806 L116.7968,31.4806 L111.9568,18.1196 L106.9568,31.4806 L100.9568,31.4806 L93.1978,9.9606 L99.0778,9.9606 L104.1588,24.5206 L109.4378,9.9606 L114.7168,9.9606 L119.8378,24.5206 L125.0778,9.9606 L130.5978,9.9606 Z M133.518,31.4806 L133.518,9.9606 L139.758,9.9606 L139.758,31.4806 L133.518,31.4806 Z M133.838,5.9606 C133.119,5.2936 132.758,4.4676 132.758,3.4796 C132.758,2.4936 133.119,1.6666 133.838,0.9996 C134.559,0.3336 135.492,-0.0004 136.639,-0.0004 C137.785,-0.0004 138.719,0.3196 139.438,0.9606 C140.158,1.6006 140.518,2.3996 140.518,3.3596 C140.518,4.3996 140.158,5.2606 139.438,5.9396 C138.719,6.6196 137.785,6.9606 136.639,6.9606 C135.492,6.9606 134.559,6.6266 133.838,5.9606 Z M147.5568,31.1402 C145.8498,30.7002 144.4908,30.1472 143.4768,29.4802 L145.5568,24.9992 C146.5178,25.6142 147.6778,26.1142 149.0368,26.4992 C150.3968,26.8872 151.7308,27.0792 153.0368,27.0792 C155.6778,27.0792 156.9978,26.4272 156.9978,25.1192 C156.9978,24.5072 156.6368,24.0672 155.9178,23.8002 C155.1978,23.5342 154.0898,23.3072 152.5978,23.1192 C150.8378,22.8542 149.3828,22.5462 148.2368,22.2002 C147.0898,21.8542 146.0978,21.2402 145.2578,20.3602 C144.4178,19.4802 143.9978,18.2272 143.9978,16.6002 C143.9978,15.2402 144.3908,14.0342 145.1778,12.9802 C145.9628,11.9272 147.1118,11.1072 148.6178,10.5202 C150.1228,9.9342 151.9048,9.6402 153.9568,9.6402 C155.4768,9.6402 156.9908,9.8072 158.4978,10.1402 C160.0038,10.4742 161.2498,10.9342 162.2368,11.5202 L160.1588,15.9602 C158.2638,14.8942 156.1978,14.3602 153.9568,14.3602 C152.6228,14.3602 151.6228,14.5462 150.9568,14.9202 C150.2908,15.2932 149.9568,15.7742 149.9568,16.3602 C149.9568,17.0272 150.3168,17.4942 151.0368,17.7602 C151.7578,18.0272 152.9048,18.2802 154.4768,18.5202 C156.2368,18.8142 157.6778,19.1262 158.7968,19.4602 C159.9178,19.7932 160.8908,20.4002 161.7168,21.2802 C162.5428,22.1602 162.9568,23.3872 162.9568,24.9602 C162.9568,26.2932 162.5568,27.4802 161.7578,28.5202 C160.9568,29.5602 159.7908,30.3672 158.2578,30.9402 C156.7228,31.5132 154.9048,31.8002 152.7968,31.8002 C151.0098,31.8002 149.2638,31.5792 147.5568,31.1402 Z M173.1584,15.5602 C172.1974,16.3602 171.6114,17.4542 171.3984,18.8402 L181.9984,18.8402 C181.7834,17.4802 181.1974,16.3942 180.2384,15.5802 C179.2774,14.7672 178.1034,14.3602 176.7174,14.3602 C175.3044,14.3602 174.1174,14.7602 173.1584,15.5602 Z M187.7584,22.4802 L171.4764,22.4802 C171.7714,23.8142 172.4634,24.8672 173.5564,25.6402 C174.6504,26.4142 176.0104,26.8002 177.6374,26.8002 C178.7584,26.8002 179.7504,26.6332 180.6174,26.3002 C181.4844,25.9672 182.2914,25.4402 183.0374,24.7202 L186.3574,28.3202 C184.3304,30.6402 181.3714,31.8002 177.4764,31.8002 C175.0514,31.8002 172.9044,31.3272 171.0374,30.3802 C169.1704,29.4342 167.7304,28.1202 166.7174,26.4402 C165.7034,24.7602 165.1974,22.8542 165.1974,20.7202 C165.1974,18.6142 165.6974,16.7132 166.6974,15.0202 C167.6974,13.3272 169.0704,12.0072 170.8184,11.0602 C172.5644,10.1142 174.5174,9.6402 176.6784,9.6402 C178.7834,9.6402 180.6914,10.0932 182.3984,10.9992 C184.1034,11.9072 185.4434,13.2062 186.4184,14.9002 C187.3904,16.5932 187.8774,18.5602 187.8774,20.8002 C187.8774,20.8802 187.8384,21.4402 187.7584,22.4802 Z" id="Combined-Shape"></path>
                </g>
            </g>
        </g>
    </g>
</svg>